<svg width="18" height="18" viewBox="0 0 18 18" fill="none" xmlns="http://www.w3.org/2000/svg">
<path d="M17.4003 0.613387C17.2769 0.489783 17.1304 0.391719 16.9691 0.324811C16.8078 0.257902 16.6349 0.223462 16.4603 0.223462C16.2857 0.223462 16.1128 0.257902 15.9515 0.324811C15.7902 0.391719 15.6436 0.489783 15.5203 0.613387L9.0003 7.12005L2.4803 0.600054C2.35686 0.476611 2.21031 0.378691 2.04902 0.311885C1.88774 0.245078 1.71487 0.210693 1.5403 0.210693C1.36572 0.210693 1.19286 0.245078 1.03157 0.311885C0.870288 0.378691 0.723741 0.476611 0.600298 0.600054C0.476855 0.723496 0.378935 0.870044 0.312129 1.03133C0.245322 1.19261 0.210937 1.36548 0.210938 1.54005C0.210938 1.71463 0.245322 1.88749 0.312129 2.04878C0.378935 2.21006 0.476855 2.35661 0.600298 2.48005L7.1203 9.00005L0.600298 15.5201C0.476855 15.6435 0.378935 15.79 0.312129 15.9513C0.245322 16.1126 0.210938 16.2855 0.210938 16.4601C0.210937 16.6346 0.245322 16.8075 0.312129 16.9688C0.378935 17.1301 0.476855 17.2766 0.600298 17.4001C0.723741 17.5235 0.870288 17.6214 1.03157 17.6882C1.19286 17.755 1.36572 17.7894 1.5403 17.7894C1.71487 17.7894 1.88774 17.755 2.04902 17.6882C2.21031 17.6214 2.35686 17.5235 2.4803 17.4001L9.0003 10.8801L15.5203 17.4001C15.6437 17.5235 15.7903 17.6214 15.9516 17.6882C16.1129 17.755 16.2857 17.7894 16.4603 17.7894C16.6349 17.7894 16.8077 17.755 16.969 17.6882C17.1303 17.6214 17.2769 17.5235 17.4003 17.4001C17.5237 17.2766 17.6217 17.1301 17.6885 16.9688C17.7553 16.8075 17.7897 16.6346 17.7897 16.4601C17.7897 16.2855 17.7553 16.1126 17.6885 15.9513C17.6217 15.79 17.5237 15.6435 17.4003 15.5201L10.8803 9.00005L17.4003 2.48005C17.907 1.97339 17.907 1.12005 17.4003 0.613387Z" fill="#FF3737"/>
</svg>
