<svg width="12" height="12" viewBox="0 0 12 12" fill="none" xmlns="http://www.w3.org/2000/svg">
<path d="M10.7257 1.28242C10.6563 1.2129 10.5739 1.15774 10.4831 1.1201C10.3924 1.08246 10.2951 1.06309 10.1969 1.06309C10.0987 1.06309 10.0014 1.08246 9.91069 1.1201C9.81996 1.15774 9.73754 1.2129 9.66816 1.28242L6.00066 4.94242L2.33316 1.27492C2.26372 1.20549 2.18129 1.15041 2.09056 1.11283C1.99984 1.07525 1.9026 1.05591 1.80441 1.05591C1.70621 1.05591 1.60897 1.07525 1.51825 1.11283C1.42753 1.15041 1.34509 1.20549 1.27566 1.27492C1.20622 1.34436 1.15114 1.42679 1.11356 1.51752C1.07598 1.60824 1.05664 1.70548 1.05664 1.80367C1.05664 1.90187 1.07598 1.99911 1.11356 2.08983C1.15114 2.18055 1.20622 2.26299 1.27566 2.33242L4.94316 5.99992L1.27566 9.66742C1.20622 9.73686 1.15114 9.81929 1.11356 9.91002C1.07598 10.0007 1.05664 10.098 1.05664 10.1962C1.05664 10.2944 1.07598 10.3916 1.11356 10.4823C1.15114 10.5731 1.20622 10.6555 1.27566 10.7249C1.34509 10.7944 1.42753 10.8494 1.51825 10.887C1.60897 10.9246 1.70621 10.9439 1.80441 10.9439C1.9026 10.9439 1.99984 10.9246 2.09056 10.887C2.18129 10.8494 2.26372 10.7944 2.33316 10.7249L6.00066 7.05742L9.66816 10.7249C9.73759 10.7944 9.82003 10.8494 9.91075 10.887C10.0015 10.9246 10.0987 10.9439 10.1969 10.9439C10.2951 10.9439 10.3923 10.9246 10.4831 10.887C10.5738 10.8494 10.6562 10.7944 10.7257 10.7249C10.7951 10.6555 10.8502 10.5731 10.8878 10.4823C10.9253 10.3916 10.9447 10.2944 10.9447 10.1962C10.9447 10.098 10.9253 10.0007 10.8878 9.91002C10.8502 9.81929 10.7951 9.73686 10.7257 9.66742L7.05816 5.99992L10.7257 2.33242C11.0107 2.04742 11.0107 1.56742 10.7257 1.28242Z" fill="white" stroke="white" stroke-width="0.5"/>
</svg>
