<svg width="80" height="80" viewBox="0 0 80 80" fill="none" xmlns="http://www.w3.org/2000/svg">
<path d="M73.3922 36.6563C72.2468 35.1359 67.9922 34.0891 66.1922 31.3531C64.3922 28.6172 62.9187 22.6922 58.3375 20.4156C53.7562 18.1391 45 17.5 40 17.5C35 17.5 26.25 18.125 21.6625 20.4109C17.075 22.6969 15.6078 28.6172 13.8078 31.3484C12.0078 34.0797 7.7531 35.1359 6.60779 36.6563C5.46247 38.1766 4.65622 47.7875 5.14685 52.5C5.63747 57.2125 6.5531 60 6.5531 60H19.9906C22.1906 60 22.9062 59.1734 27.4062 58.75C32.3437 58.2812 37.1875 58.125 40 58.125C42.8125 58.125 47.8125 58.2812 52.7468 58.75C57.2468 59.1766 57.9859 60 60.1625 60H73.4437C73.4437 60 74.3594 57.2125 74.85 52.5C75.3406 47.7875 74.5312 38.1766 73.3922 36.6563ZM62.5 60H71.25V62.5H62.5V60ZM8.74997 60H17.5V62.5H8.74997V60Z" stroke="#F3B755" stroke-width="4" stroke-linecap="round" stroke-linejoin="round"/>
<path d="M56.9484 48.3062C56.025 47.2391 53.0156 46.3484 49.0312 45.7516C45.0468 45.1547 43.5937 45 40.0312 45C36.4687 45 34.8484 45.2562 31.0297 45.7516C27.2109 46.2469 24.3437 47.1281 23.114 48.3062C21.2687 50.0937 23.9718 52.1 26.0937 52.3437C28.15 52.5781 32.2609 52.4922 40.0484 52.4922C47.8359 52.4922 51.9468 52.5781 54.0031 52.3437C56.1219 52.0859 58.6312 50.2187 56.9484 48.3062ZM67.4328 37.9766C67.424 37.8525 67.3697 37.736 67.2803 37.6495C67.1909 37.5629 67.0727 37.5125 66.9484 37.5078C65.1031 37.4422 63.2297 37.5734 59.9062 38.5531C58.2107 39.0481 56.6184 39.8453 55.2062 40.9062C54.85 41.1844 54.9765 41.9359 55.4234 42.0156C58.1627 42.3369 60.9184 42.4986 63.6765 42.5C65.3312 42.5 67.039 42.0312 67.3562 40.5562C67.5179 39.7058 67.5438 38.8351 67.4328 37.9766ZM12.5672 37.9766C12.5759 37.8525 12.6302 37.736 12.7196 37.6495C12.809 37.5629 12.9272 37.5125 13.0515 37.5078C14.8968 37.4422 16.7703 37.5734 20.0937 38.5531C21.7893 39.0481 23.3815 39.8453 24.7937 40.9062C25.15 41.1844 25.0234 41.9359 24.5765 42.0156C21.8372 42.3369 19.0815 42.4986 16.3234 42.5C14.6687 42.5 12.9609 42.0312 12.6437 40.5562C12.482 39.7058 12.4562 38.8351 12.5672 37.9766Z" fill="#4E9C0B"/>
<path d="M67.5 30H70M10 30H12.5M12.1875 32.9688C12.1875 32.9688 19.4297 31.0938 40 31.0938C60.5703 31.0938 67.8125 32.9688 67.8125 32.9688" stroke="#F3B755" stroke-width="4" stroke-linecap="round" stroke-linejoin="round"/>
</svg>
