<svg width="37" height="65" viewBox="0 0 37 65" fill="none" xmlns="http://www.w3.org/2000/svg">
<path fill-rule="evenodd" clip-rule="evenodd" d="M6.888 32.588C16.088 23.36 25.08 14.352 33.864 5.57199C34.3238 5.08865 34.5802 4.44708 34.5802 3.77999C34.5802 3.11289 34.3238 2.47132 33.864 1.98799C32.62 0.603987 30.652 0.723987 29.756 1.66799C20.652 10.796 11.128 20.336 1.184 30.292C0.396 30.94 0 31.708 0 32.588C0 33.472 0.396 34.26 1.184 34.956L31.116 64.18C31.6902 64.7082 32.4477 64.9915 33.2276 64.9699C34.0074 64.9482 34.748 64.6232 35.292 64.064C36.724 62.628 36.172 61.212 35.524 60.54C25.9637 51.2367 16.421 41.9193 6.888 32.588Z" fill="#C0C0C0"/>
</svg>
