<svg width="37" height="65" viewBox="0 0 37 65" fill="none" xmlns="http://www.w3.org/2000/svg">
<path fill-rule="evenodd" clip-rule="evenodd" d="M30.112 32.588C20.912 23.36 11.92 14.352 3.136 5.57199C2.67622 5.08865 2.41981 4.44708 2.41981 3.77999C2.41981 3.11289 2.67622 2.47132 3.136 1.98799C4.38 0.603987 6.348 0.723987 7.244 1.66799C16.348 10.796 25.872 20.336 35.816 30.292C36.604 30.94 37 31.708 37 32.588C37 33.472 36.604 34.26 35.816 34.956L5.884 64.18C5.30984 64.7082 4.5523 64.9915 3.77245 64.9699C2.9926 64.9482 2.25195 64.6232 1.708 64.064C0.276001 62.628 0.828003 61.212 1.476 60.54C11.0363 51.2367 20.579 41.9193 30.112 32.588Z" fill="#C0C0C0"/>
</svg>
