<svg width="24" height="24" viewBox="0 0 24 24" fill="none" xmlns="http://www.w3.org/2000/svg">
<path d="M0.23999 12C1.34542 9.83165 3.02884 8.01112 5.10422 6.73964C7.17959 5.46815 9.5661 4.79523 12 4.79523C14.4339 4.79523 16.8204 5.46815 18.8958 6.73964C20.9711 8.01112 22.6546 9.83165 23.76 12C22.6546 14.1684 20.9711 15.9889 18.8958 17.2604C16.8204 18.5319 14.4339 19.2048 12 19.2048C9.5661 19.2048 7.17959 18.5319 5.10422 17.2604C3.02884 15.9889 1.34542 14.1684 0.23999 12ZM12 16.8C13.273 16.8 14.4939 16.2943 15.3941 15.3941C16.2943 14.494 16.8 13.2731 16.8 12C16.8 10.727 16.2943 9.50609 15.3941 8.60592C14.4939 7.70574 13.273 7.20003 12 7.20003C10.727 7.20003 9.50605 7.70574 8.60588 8.60592C7.7057 9.50609 7.19999 10.727 7.19999 12C7.19999 13.2731 7.7057 14.494 8.60588 15.3941C9.50605 16.2943 10.727 16.8 12 16.8ZM12 14.4C11.3635 14.4 10.753 14.1472 10.3029 13.6971C9.85285 13.247 9.59999 12.6365 9.59999 12C9.59999 11.3635 9.85285 10.7531 10.3029 10.303C10.753 9.85289 11.3635 9.60003 12 9.60003C12.6365 9.60003 13.247 9.85289 13.697 10.303C14.1471 10.7531 14.4 11.3635 14.4 12C14.4 12.6365 14.1471 13.247 13.697 13.6971C13.247 14.1472 12.6365 14.4 12 14.4Z" fill="#4E9C0B"/>
</svg>
